<svg version="1.1" xmlns="http://www.w3.org/2000/svg" xmlns:xlink="http://www.w3.org/1999/xlink" width="1570.98672" height="494.96366" viewBox="-320.58678,320.53634,1570.98672,494.96366"><g fill="none" fill-rule="nonzero" stroke="none" stroke-width="1" stroke-linecap="butt" stroke-linejoin="miter" stroke-miterlimit="10" stroke-dasharray="" stroke-dashoffset="0" font-family="none" font-weight="none" font-size="none" text-anchor="none" style="mix-blend-mode: normal"><path d="M419.58921,507.6913l-41.00018,73.31429l-83.60462,-46.75492l1.6318,-4.08169l6.066,-8.52751l-5.09961,-12.19647l5.49094,-7.24282l6.06149,-8.97931l2.82219,-7.55943l-5.27879,-15.83702l10.99821,-6.44012l1.60584,-9.92111l-0.30087,-2.03755z" fill="#d0d0ce"/><path d="M247.21275,505.7518l-23.74108,55.10318l97.34896,41.94258l-33.23752,77.14446l-97.34896,-41.94258l-56.9786,132.24764l-77.14446,-33.23752l147.19472,-341.63975l103.52845,44.605l0.50896,1.99576l-0.57631,10.03369l-10.27704,7.53778l6.88059,15.20968l-2.02924,7.80973l-5.10522,9.55543l-4.71641,7.76945l6.32771,11.60689l-5.1562,9.1065l-1.20308,4.22795z" fill="#d0d0ce"/><path d="M562.62132,321.15822l0.82803,8.64723l6.41556,10.17902l-3.14214,11.63309l-4.96839,7.29189l5.74831,8.85935l-1.25305,12.96322l-2.56036,12.7451l-4.23777,14.41373l-7.67611,6.37075l2.24154,11.83874l-2.19573,8.71979l-7.08728,11.60405l0.18917,15.54034l-1.18425,8.98827l-9.25659,13.34241l-2.84516,13.9441l-4.51193,8.63225l7.5965,11.32727l-6.80608,14.06744l2.02782,13.92627l1.48287,15.29332l13.00967,3.69148l6.1119,11.22649l14.62053,-0.02932l9.53026,8.22578l15.33826,-15.90086l-6,-10l5,-15l-2,-9l-4,-11l5,-14l1,-9l-8,-13l9,-15l-8,-14l7,-9l-2,-14l-1,-12l-1,-9l4,-10l1,-10l-3,-9l1,-10l-8,-14l2,-11l3,-11l1,-8l-5.23202,-11.16308z" fill="none"/><path d="M432.69109,423.46086l24.85237,3.90898l0.99212,3.33508l0.98525,14.6373l-8.77699,13.76725l1.81501,7.85237l9.91342,7.96359l0.87436,7.94906l-6.97806,9.82684l9.29324,12.17721l-7.88087,12.83783l0.66546,8.99125l1.66445,12.97821l7.1869,7.96948l-3.21008,14.35234l-1.00229,13.36146l-0.08935,13.76488l-3.2523,15.86088l-10.31561,13.16848l-5.03309,12.49987l-15.61897,5.32385l-8.96165,11.42282l-8.59936,7.93565l-14.39564,-3.82089z" fill="#d0d0ce"/><path d="M529.34895,398.18503l0.01325,288l99.5,-0.00458l0.00386,84l-183.5,0.00844l-0.00649,-141.13236l14.81456,1.53704l7.26147,-9.17576l7.07737,-12.67686l14.60172,-7.6867l3.02916,-13.13023l8.14357,-14.61174l0.74763,-16.17362l-2.05112,-13.61149l-1.08657,-13.35487l0.94038,-14.67685l-8.3382,-6.75563l-3.66133,-12.5618l-2.05483,-8.77856l5.78981,-13.90669l-11.07293,-10.58485l5.36595,-10.79198l-2.09921,-7.71657l-11.03068,-6.32604l-3.01339,-7.47485l6.53058,-14.9641l-3.24825,-14.3063l-1.49841,-3.14036z" fill="#d0d0ce"/><path d="M645.50391,389.03924l37.12865,148.13905l-3.48586,-3.03995l-11.45286,1.26497l-10.641,-4.91684l-7.84479,-9.37721l-10.95393,-4.66634l-12.05748,-6.3196l-7.52267,-9.49117l-2.67162,-15.83152l-7.48865,-11.41575l-2.27771,-12.3558l-5.65169,-13.38516l-3.62725,-7.69919l-1.94707,-12.25592l-2.52731,-14.24019l3.06531,-11.88874z" fill="#d0d0ce"/><path d="M563.9808,408.11182l31.63257,-7.45383l-3.23332,11.84415l2.32544,14.27454l1.77335,12.28226l3.51788,7.74978l5.46161,13.46384l2.10254,12.38681l7.32627,11.52063l2.4472,15.86776l7.38754,9.59673l11.96679,6.48968l10.88677,4.82096l7.71124,9.48734l10.57032,5.067l11.46962,-1.10269l3.44247,3.089l50.293,213.43354l-81.76077,19.26593z" fill="#d0d0ce"/><path d="M942.20026,570.42841l43.3662,12.01552l-11.85113,42.7729l-10.45764,-8.50733l-6.94015,-4.44655l-10.26619,-11.67906l-6.41469,-12.58591l-11.87486,-10.6989l4.21055,-15.10835l4.80599,-7.62816l5.01783,-10.46506l3.48512,-10.00194l7.61995,-13.4481l3.19911,-0.38703z" fill="#d0d0ce"/><path d="M967.21261,653.22648l-44.17042,8.60082l17.96617,92.2671l-82.45145,16.05487l-17.96617,-92.2671l-120.24169,23.41335l-16.05487,-82.45145l83.35371,-212.85537l-0.19113,-0.98156l82.45145,-16.05487l27.12929,139.32526l-2.69014,1.77405l-0.81743,15.43525l1.34485,10.50601l0.17991,11.60447l-0.89656,8.97121l2.97455,15.39945l15.40144,4.27488l11.3573,8.40031l14.39927,5.86993l8.1951,0.88194l13.15512,2.94612z" fill="#d0d0ce"/><path d="M1095.42225,339.79113l1.00257,12.00752l8.03164,11.9977l-2.8338,14.07888l-4.28954,15.65589l4.75273,13.72894l18.99497,3.26345l10.92453,-5.76676l10.0238,-4.27242l6.7096,-8.80705l12.46946,4.51669l10.19678,-8.80639l8.47923,-6.4634l14.8657,-1.96876l14.97197,0.18665l10.90729,1.3473l7.83304,-5.14455l10.40668,-11.59419v-10l-6.93765,-14.1811l-17.98859,-0.77841l-14,-1l-14,-1l-15,-4h-12l-8,4l-12,3l-12,-6l-8,-4h-8z" fill="none"/><path d="M976.16516,527.55202l51.46895,-10.92154l4.94065,11.52555l-3.4597,10.7924l-0.39653,14.94732l6.79806,15.0276l-3.06244,9.94308l-1.02657,8.98186l1.98505,10.9977l-7.03149,14.9944l0.93554,11.0128l-1.12889,10.99797l6.8477,8.16201l-1.42158,14.08272l2.30613,14.31581l-9.52619,7.45658l5.99011,11.69583l0.65664,11.45485l-2.14138,13.33448l-2.19099,10.27413l-3.15115,7.93227l-2.65251,3.83141z" fill="#d0d0ce"/><path d="M1105.58685,390.20224l35.67437,285.78198l98.7337,-12.325l10.40502,83.35308l-182.08678,22.73002l-19.38137,-155.26123l2.96788,-3.59266l3.8125,-7.63646l3.0544,-10.05131l3.26449,-13.10485l0.31715,-11.46927l-4.97667,-12.16169l10.12423,-6.62185l-1.08377,-14.45981l2.61075,-13.91143l-6.13086,-8.71332l2.05751,-10.86262l0.00177,-11.05247l8.27776,-14.34408l-1.04523,-11.12643l1.78458,-8.86245l3.89463,-9.64755l-5.49916,-15.54997l1.66271,-14.85984l4.36248,-10.46013l-3.94543,-11.90303z" fill="#d0d0ce"/><path d="M-291.68678,783.2l16.6,-18.6c2.13333,-2.26667 3.78333,-4.7 4.95,-7.3c1.16667,-2.6 1.75,-5.5 1.75,-8.7c0,-2.46667 -0.33333,-4.73333 -1,-6.8c-0.73333,-2.33333 -1.8,-4.5 -3.2,-6.5c-1.4,-2 -3.06667,-3.71667 -5,-5.15c-1.93333,-1.43333 -4.06667,-2.55 -6.4,-3.35c-2.33333,-0.8 -4.8,-1.2 -7.4,-1.2c-3.13333,0 -6.06667,0.6 -8.8,1.8c-2.73333,1.2 -5.1,2.85 -7.1,4.95c-2,2.1 -3.56667,4.55 -4.7,7.35c-1.13333,2.8 -1.7,5.76667 -1.7,8.9h15.9c0,-0.66667 0.11667,-1.4 0.35,-2.2c0.23333,-0.8 0.6,-1.55 1.1,-2.25c0.5,-0.7 1.18333,-1.26667 2.05,-1.7c0.86667,-0.43333 1.93333,-0.65 3.2,-0.65c1.4,0 2.6,0.51667 3.6,1.55c1,1.03333 1.7,2.18333 2.1,3.45c0.13333,0.66667 0.2,1.26667 0.2,1.8c0,1.26667 -0.3,2.33333 -0.9,3.2l-27.2,31.4v16.8h44.7v-16.8zM-320.58678,815.5v-104.6h1429.1v104.6zM-212.18678,778c0,-0.4 0.01667,-0.8 0.05,-1.2c0.03333,-0.4 0.05,-0.76667 0.05,-1.1v-25.7c0,-0.33333 -0.01667,-0.71667 -0.05,-1.15c-0.03333,-0.43333 -0.05,-0.85 -0.05,-1.25v-0.1c0,-3.13333 -0.55,-6.03333 -1.65,-8.7c-1.1,-2.66667 -2.65,-4.98333 -4.65,-6.95c-2,-1.96667 -4.4,-3.5 -7.2,-4.6c-2.8,-1.1 -5.9,-1.65 -9.3,-1.65c-3.46667,0 -6.61667,0.55 -9.45,1.65c-2.83333,1.1 -5.25,2.63333 -7.25,4.6c-2,1.96667 -3.55,4.28333 -4.65,6.95c-1.1,2.66667 -1.65,5.56667 -1.65,8.7v31.7c0,2.8 0.56667,5.46667 1.7,8c1.13333,2.53333 2.71667,4.75 4.75,6.65c2.03333,1.9 4.46667,3.4 7.3,4.5c2.83333,1.1 5.91667,1.65 9.25,1.65c3.4,0 6.5,-0.55 9.3,-1.65c2.8,-1.1 5.2,-2.61667 7.2,-4.55c2,-1.93333 3.55,-4.23333 4.65,-6.9c1.1,-2.66667 1.65,-5.56667 1.65,-8.7h0.1c0,-0.06667 -0.03333,-0.1 -0.1,-0.1zM-121.78678,725.6h-18.8l-8.6,17.6l-8.7,-17.6h-18.8l19.1,37.2v37.2h15.8v-37.2zM-65.78678,742.4v-16.8h-45.6v74.4h45.6v-16.8h-28.8v-12h21.2v-16.8h-21.2v-12zM-14.98678,780.4l6.7,19.6h19.1l-21.8,-74.4h-22.4l-21.8,74.4h19.1l6.6,-19.6zM70.21322,800l-15.1,-29.7c0.86667,0 2.06667,-0.45 3.6,-1.35c1.53333,-0.9 3.05,-2.23333 4.55,-4c1.5,-1.76667 2.8,-3.95 3.9,-6.55c1.1,-2.6 1.65,-5.56667 1.65,-8.9c0,-3.2 -0.36667,-6.25 -1.1,-9.15c-0.73333,-2.9 -1.95,-5.43333 -3.65,-7.6c-1.7,-2.16667 -3.96667,-3.9 -6.8,-5.2c-2.83333,-1.3 -6.38333,-1.95 -10.65,-1.95h-22.7v74.4h16.8v-24.2h0.2l10,24.2zM130.81322,781.3c0,-3.8 -0.66667,-7.08333 -2,-9.85c-1.33333,-2.76667 -3.1,-5.25 -5.3,-7.45c-2.2,-2.2 -4.71667,-4.16667 -7.55,-5.9c-2.83333,-1.73333 -5.78333,-3.46667 -8.85,-5.2c-2.2,-1.6 -3.81667,-2.88333 -4.85,-3.85c-1.03333,-0.96667 -1.55,-2.08333 -1.55,-3.35c0,-1.66667 0.55,-2.91667 1.65,-3.75c1.1,-0.83333 2.31667,-1.25 3.65,-1.25c1.26667,0 2.38333,0.26667 3.35,0.8c0.96667,0.53333 1.8,1.18333 2.5,1.95c0.7,0.76667 1.25,1.6 1.65,2.5c0.4,0.9 0.7,1.71667 0.9,2.45l14.7,-5.8c-0.33333,-2 -1.03333,-4.01667 -2.1,-6.05c-1.06667,-2.03333 -2.55,-3.85 -4.45,-5.45c-1.9,-1.6 -4.23333,-2.91667 -7,-3.95c-2.76667,-1.03333 -5.98333,-1.55 -9.65,-1.55c-3.06667,0.06667 -6.03333,0.53333 -8.9,1.4c-2.86667,0.86667 -5.4,2.13333 -7.6,3.8c-2.2,1.66667 -3.96667,3.73333 -5.3,6.2c-1.33333,2.46667 -2,5.33333 -2,8.6c0,3.53333 0.61667,6.46667 1.85,8.8c1.23333,2.33333 2.93333,4.43333 5.1,6.3c2.16667,1.86667 4.7,3.65 7.6,5.35c2.9,1.7 6.05,3.68333 9.45,5.95c1.53333,1.06667 2.71667,2.08333 3.55,3.05c0.83333,0.96667 1.28333,2.01667 1.35,3.15c0.06667,1.86667 -0.45,3.23333 -1.55,4.1c-1.1,0.86667 -2.21667,1.36667 -3.35,1.5c-1.33333,0.2 -2.58333,-0.08333 -3.75,-0.85c-1.16667,-0.76667 -2.15,-1.63333 -2.95,-2.6c-0.8,-0.96667 -1.41667,-1.88333 -1.85,-2.75c-0.43333,-0.86667 -0.58333,-1.33333 -0.45,-1.4l-16,6.7c0.66667,2.66667 1.75,5.05 3.25,7.15c1.5,2.1 3.31667,3.88333 5.45,5.35c2.13333,1.46667 4.51667,2.6 7.15,3.4c2.63333,0.8 5.45,1.2 8.45,1.2c3.86667,0 7.33333,-0.45 10.4,-1.35c3.06667,-0.9 5.68333,-2.13333 7.85,-3.7c2.16667,-1.56667 3.86667,-3.4 5.1,-5.5c1.23333,-2.1 1.91667,-4.35 2.05,-6.75zM210.21322,780.4l6.7,19.6h19.1l-21.8,-74.4h-22.4l-21.8,74.4h19.1l6.6,-19.6zM282.41322,725.6v36.5l-19.9,-36.5h-17.1v74.4h17.8v-36.6l20,36.6h17v-74.4zM362.21322,762.8c0,-5.26667 -0.73333,-10.18333 -2.2,-14.75c-1.46667,-4.56667 -3.66667,-8.5 -6.6,-11.8c-2.93333,-3.3 -6.6,-5.9 -11,-7.8c-4.4,-1.9 -9.5,-2.85 -15.3,-2.85h-15v74.4h17.2c6.06667,0 11.2,-1 15.4,-3c4.2,-2 7.6,-4.7 10.2,-8.1c2.6,-3.4 4.46667,-7.35 5.6,-11.85c1.13333,-4.5 1.7,-9.25 1.7,-14.25zM453.21322,781.3c0,-3.8 -0.66667,-7.08333 -2,-9.85c-1.33333,-2.76667 -3.1,-5.25 -5.3,-7.45c-2.2,-2.2 -4.71667,-4.16667 -7.55,-5.9c-2.83333,-1.73333 -5.78333,-3.46667 -8.85,-5.2c-2.2,-1.6 -3.81667,-2.88333 -4.85,-3.85c-1.03333,-0.96667 -1.55,-2.08333 -1.55,-3.35c0,-1.66667 0.55,-2.91667 1.65,-3.75c1.1,-0.83333 2.31667,-1.25 3.65,-1.25c1.26667,0 2.38333,0.26667 3.35,0.8c0.96667,0.53333 1.8,1.18333 2.5,1.95c0.7,0.76667 1.25,1.6 1.65,2.5c0.4,0.9 0.7,1.71667 0.9,2.45l14.7,-5.8c-0.33333,-2 -1.03333,-4.01667 -2.1,-6.05c-1.06667,-2.03333 -2.55,-3.85 -4.45,-5.45c-1.9,-1.6 -4.23333,-2.91667 -7,-3.95c-2.76667,-1.03333 -5.98333,-1.55 -9.65,-1.55c-3.06667,0.06667 -6.03333,0.53333 -8.9,1.4c-2.86667,0.86667 -5.4,2.13333 -7.6,3.8c-2.2,1.66667 -3.96667,3.73333 -5.3,6.2c-1.33333,2.46667 -2,5.33333 -2,8.6c0,3.53333 0.61667,6.46667 1.85,8.8c1.23333,2.33333 2.93333,4.43333 5.1,6.3c2.16667,1.86667 4.7,3.65 7.6,5.35c2.9,1.7 6.05,3.68333 9.45,5.95c1.53333,1.06667 2.71667,2.08333 3.55,3.05c0.83333,0.96667 1.28333,2.01667 1.35,3.15c0.06667,1.86667 -0.45,3.23333 -1.55,4.1c-1.1,0.86667 -2.21667,1.36667 -3.35,1.5c-1.33333,0.2 -2.58333,-0.08333 -3.75,-0.85c-1.16667,-0.76667 -2.15,-1.63333 -2.95,-2.6c-0.8,-0.96667 -1.41667,-1.88333 -1.85,-2.75c-0.43333,-0.86667 -0.58333,-1.33333 -0.45,-1.4l-16,6.7c0.66667,2.66667 1.75,5.05 3.25,7.15c1.5,2.1 3.31667,3.88333 5.45,5.35c2.13333,1.46667 4.51667,2.6 7.15,3.4c2.63333,0.8 5.45,1.2 8.45,1.2c3.86667,0 7.33333,-0.45 10.4,-1.35c3.06667,-0.9 5.68333,-2.13333 7.85,-3.7c2.16667,-1.56667 3.86667,-3.4 5.1,-5.5c1.23333,-2.1 1.91667,-4.35 2.05,-6.75zM511.01322,725.6h-50.6v16.8h16.9v57.6h16.8v-57.6h16.9zM537.71322,800v-74.4h-16.8v74.4zM567.71322,783.2v-57.6h-16.8v74.4h36.7v-16.8zM616.91322,783.2v-57.6h-16.8v74.4h36.7v-16.8zM723.11322,800l-15.1,-29.7c0.86667,0 2.06667,-0.45 3.6,-1.35c1.53333,-0.9 3.05,-2.23333 4.55,-4c1.5,-1.76667 2.8,-3.95 3.9,-6.55c1.1,-2.6 1.65,-5.56667 1.65,-8.9c0,-3.2 -0.36667,-6.25 -1.1,-9.15c-0.73333,-2.9 -1.95,-5.43333 -3.65,-7.6c-1.7,-2.16667 -3.96667,-3.9 -6.8,-5.2c-2.83333,-1.3 -6.38333,-1.95 -10.65,-1.95h-22.7v74.4h16.8v-24.2h0.2l10,24.2zM790.21322,753c-0.06667,-3.4 -0.7,-6.7 -1.9,-9.9c-1.2,-3.2 -3,-6.06667 -5.4,-8.6c-2.73333,-2.86667 -5.85,-5.06667 -9.35,-6.6c-3.5,-1.53333 -7.21667,-2.3 -11.15,-2.3h-0.1c-3.93333,0 -7.63333,0.76667 -11.1,2.3c-3.46667,1.53333 -6.6,3.73333 -9.4,6.6c-2.33333,2.53333 -4.13333,5.45 -5.4,8.75c-1.26667,3.3 -1.9,6.55 -1.9,9.75v17.4c0.06667,4 0.65,7.76667 1.75,11.3c1.1,3.53333 2.95,6.7 5.55,9.5c2.8,2.86667 5.95,5.06667 9.45,6.6c3.5,1.53333 7.18333,2.3 11.05,2.3h0.1c3.93333,0 7.65,-0.76667 11.15,-2.3c3.5,-1.53333 6.61667,-3.76667 9.35,-6.7c2.66667,-2.8 4.55,-6.05 5.65,-9.75c1.1,-3.7 1.65,-7.35 1.65,-10.95zM854.21322,725.5h-17.3v43.5c0,1.8 -0.18333,3.5 -0.55,5.1c-0.36667,1.6 -0.93333,3 -1.7,4.2c-0.76667,1.2 -1.75,2.15 -2.95,2.85c-1.2,0.7 -2.63333,1.05 -4.3,1.05c-1.66667,0 -3.1,-0.35 -4.3,-1.05c-1.2,-0.7 -2.2,-1.65 -3,-2.85c-0.8,-1.2 -1.38333,-2.6 -1.75,-4.2c-0.36667,-1.6 -0.55,-3.3 -0.55,-5.1v-43.5h-17.3v44.8c0,3.93333 0.48333,7.7 1.45,11.3c0.96667,3.6 2.51667,6.78333 4.65,9.55c2.13333,2.76667 4.9,4.95 8.3,6.55c3.4,1.6 7.53333,2.36667 12.4,2.3h0.1c4.4,0.06667 8.26667,-0.61667 11.6,-2.05c3.33333,-1.43333 6.11667,-3.46667 8.35,-6.1c2.23333,-2.63333 3.93333,-5.78333 5.1,-9.45c1.16667,-3.66667 1.75,-7.7 1.75,-12.1zM914.61322,725.6h-50.6v16.8h16.9v57.6h16.8v-57.6h16.9zM941.31322,800v-74.4h-16.8v74.4zM988.61322,725.6v36.5l-19.9,-36.5h-17.1v74.4h17.8v-36.6l20,36.6h17v-74.4zM1069.31322,760.2h-24v14.4h7.9v3.7c-0.73333,1.33333 -1.81667,2.43333 -3.25,3.3c-1.43333,0.86667 -3.31667,1.26667 -5.65,1.2c-1.66667,0 -3.2,-0.33333 -4.6,-1c-1.4,-0.66667 -2.61667,-1.55 -3.65,-2.65c-1.03333,-1.1 -1.85,-2.43333 -2.45,-4c-0.6,-1.56667 -0.9,-3.25 -0.9,-5.05v-14.5c0,-3.66667 0.98333,-6.61667 2.95,-8.85c1.96667,-2.23333 4.61667,-3.35 7.95,-3.35c1.73333,0 3.16667,0.28333 4.3,0.85c1.13333,0.56667 2.08333,1.25 2.85,2.05c0.76667,0.8 1.36667,1.66667 1.8,2.6c0.43333,0.93333 0.81667,1.76667 1.15,2.5l13.8,-9.1c-0.66667,-1 -1.43333,-2.4 -2.3,-4.2c-0.86667,-1.8 -2.15,-3.6 -3.85,-5.4c-1.7,-1.8 -3.96667,-3.38333 -6.8,-4.75c-2.83333,-1.36667 -6.51667,-2.15 -11.05,-2.35h-0.1c-4.53333,0 -8.53333,0.8 -12,2.4c-3.46667,1.6 -6.36667,3.75 -8.7,6.45c-2.33333,2.7 -4.1,5.85 -5.3,9.45c-1.2,3.6 -1.8,7.4 -1.8,11.4v15.4c0.13333,4.26667 0.83333,8.2 2.1,11.8c1.26667,3.6 3.05,6.7 5.35,9.3c2.3,2.6 5.15,4.63333 8.55,6.1c3.4,1.46667 7.33333,2.2 11.8,2.2h0.1c2.86667,0 5.6,-0.38333 8.2,-1.15c2.6,-0.76667 4.98333,-1.78333 7.15,-3.05c2.16667,-1.26667 4.13333,-2.75 5.9,-4.45c1.76667,-1.7 3.28333,-3.45 4.55,-5.25z" fill="#00bb31"/></g></svg>